%
M48
M71
T01C0.600
T02C0.635
T03C0.900
T04C1.000
T05C1.016
T06C2.500
%
T01
X0Y0
X12065Y9843
X11986Y13811
X15478Y16986
X21590Y19209
X23654Y19209
X29051Y16748
X27464Y15399
X32861Y17463
X36354Y18653
X41513Y16431
X43577Y16192
X43498Y24368
X39211Y22066
X42148Y20558
X44172Y20558
X38894Y15478
X44212Y12541
X38418Y10954
X38418Y8811
X33814Y6826
X36433Y5080
X31353Y6985
X27940Y10081
X25479Y8255
X23733Y6350
X21828Y6350
X27702Y12065
X31194Y12224
X32425Y19645
X29686Y21431
X13256Y20558
X16907Y21034
X18653Y22304
X36354Y22066
X47942Y26987
X47942Y0
X0Y26987
T02
X18653Y25241
X21193Y25241
X23733Y25241
X26273Y25241
T03
X4524Y9865
X4524Y14265
T04
X26273Y25241
X23733Y25241
X21193Y25241
X18653Y25241
T05
X46355Y12144
X46355Y14684
X46355Y17224
X46355Y19764
X46355Y22304
T06
X11500Y3000
X11500Y24000
M30
